<?xml version="1.0" standalone="no"?>
<!DOCTYPE svg PUBLIC "-//W3C//DTD SVG 20010904//EN"
 "http://www.w3.org/TR/2001/REC-SVG-20010904/DTD/svg10.dtd">
<svg version="1.0" xmlns="http://www.w3.org/2000/svg"
 width="100.000000pt" height="100.000000pt" viewBox="0 0 100.000000 100.000000"
 preserveAspectRatio="xMidYMid meet">
<metadata>
Created by potrace 1.11, written by Peter Selinger 2001-2013
</metadata>
<g transform="translate(0.000000,100.000000) scale(0.100000,-0.100000)"
fill="#000000" stroke="none">
<path d="M0 500 l0 -500 500 0 500 0 0 500 0 500 -500 0 -500 0 0 -500z m225
226 c48 -32 60 -71 60 -196 0 -98 -3 -120 -20 -150 -28 -47 -77 -71 -140 -68
l-50 3 -3 205 c-1 112 0 211 3 219 7 18 116 9 150 -13z m170 -6 c0 -16 -6 -26
-18 -28 -19 -4 -32 20 -23 44 9 25 41 13 41 -16z m360 14 c25 -16 33 -30 45
-81 7 -30 6 -33 -14 -33 -15 0 -26 11 -37 39 -17 41 -41 53 -77 40 -35 -13
-52 -67 -52 -161 0 -138 20 -178 87 -178 41 0 53 17 53 72 0 47 -1 48 -30 48
-25 0 -30 4 -30 25 0 24 3 25 55 25 l55 0 0 -81 c0 -76 -2 -82 -29 -110 -57
-56 -154 -32 -187 47 -19 46 -19 253 0 298 8 18 24 41 37 50 30 20 93 21 124
0z m160 -14 c0 -29 -32 -41 -41 -16 -9 24 4 48 23 44 12 -2 18 -12 18 -28z
m-520 -245 c0 -153 -1 -160 -20 -160 -19 0 -20 8 -23 150 -1 82 0 155 3 163 3
7 13 12 22 10 16 -3 18 -19 18 -163z m520 0 c0 -153 -1 -160 -20 -160 -19 0
-20 8 -23 150 -1 82 0 155 3 163 3 7 13 12 22 10 16 -3 18 -19 18 -163z m-717
-296 c-19 -12 -38 10 -38 43 0 21 6 31 20 35 11 3 21 13 22 22 1 9 3 -8 5 -38
3 -37 0 -57 -9 -62z m249 29 c-2 -18 -4 -6 -4 27 0 33 2 48 4 33 2 -15 2 -42
0 -60z m-83 12 c1 -22 -2 -40 -5 -40 -8 0 -18 72 -12 83 9 15 16 -2 17 -43z
m-124 0 c0 -22 -4 -40 -10 -40 -11 0 -14 63 -3 73 11 12 13 8 13 -33z m58 -8
c3 -44 -12 -77 -30 -66 -6 4 -5 10 3 15 11 8 11 11 -3 20 -18 10 -25 59 -11
73 19 19 38 -1 41 -42z m120 8 c2 -19 -2 -36 -9 -41 -30 -18 -41 25 -11 47 16
13 16 13 -1 14 -10 0 -15 5 -12 11 12 19 30 3 33 -31z m120 -1 c3 -41 -18 -58
-39 -32 -11 13 -10 17 4 28 18 13 24 41 7 30 -5 -3 -10 -1 -10 5 0 6 8 10 18
8 12 -2 18 -14 20 -39z m62 -8 c0 -48 -20 -85 -35 -61 -3 5 1 10 9 10 9 0 16
5 16 10 0 5 -5 9 -11 7 -18 -4 -32 28 -25 56 4 18 13 27 26 27 17 0 20 -7 20
-49z m58 21 c2 -15 -2 -22 -12 -22 -9 0 -16 -4 -16 -10 0 -5 8 -10 17 -10 13
0 14 -3 5 -12 -25 -25 -52 24 -36 67 9 23 38 14 42 -13z m59 -17 c2 -40 2 -40
-6 -7 -12 47 -21 51 -21 9 0 -20 -4 -37 -10 -37 -5 0 -10 18 -10 41 0 36 2 40
23 37 18 -2 22 -10 24 -43z m61 25 c5 -13 3 -13 -11 -1 -14 11 -18 11 -23 -3
-9 -25 4 -49 22 -42 14 5 15 4 4 -9 -10 -12 -16 -13 -26 -4 -15 12 -19 61 -7
73 11 11 36 3 41 -14z m40 0 c14 33 15 10 1 -46 -16 -64 -24 -61 -25 9 -1 41
1 53 6 37 l7 -25 11 25z m-488 -25 c0 -19 -4 -35 -10 -35 -5 0 -10 16 -10 35
0 19 5 35 10 35 6 0 10 -16 10 -35z"/>
<path d="M120 530 l0 -170 25 0 c36 0 71 19 84 47 6 13 11 71 11 128 0 97 -2
105 -26 134 -19 24 -34 31 -60 31 l-34 0 0 -170z"/>
<path d="M175 231 c-8 -27 11 -54 21 -28 3 9 1 24 -4 33 -9 16 -10 15 -17 -5z"/>
<path d="M265 231 c-8 -27 11 -54 21 -28 3 9 1 24 -4 33 -9 16 -10 15 -17 -5z"/>
<path d="M390 200 c0 -5 5 -10 10 -10 6 0 10 5 10 10 0 6 -4 10 -10 10 -5 0
-10 -4 -10 -10z"/>
<path d="M510 199 c0 -5 5 -7 10 -4 6 3 10 8 10 11 0 2 -4 4 -10 4 -5 0 -10
-5 -10 -11z"/>
<path d="M565 230 c-7 -21 0 -40 16 -40 12 0 12 47 0 55 -5 3 -12 -4 -16 -15z"/>
<path d="M630 234 c0 -8 5 -12 10 -9 6 4 8 11 5 16 -9 14 -15 11 -15 -7z"/>
</g>
</svg>
